# xmcd CD database file
#
# Track frame offsets:
#	187
#	16597
#	37379
#	55027
#	72919
#	90947
#	114727
#	134867
#	151929
#	164154
#	181177
#	207177
#	229212
#	250972
#
# Disc length: 3686 seconds
#
# Revision: 0
# Processed by: cddbd v1.5.1PL0 Copyright (c) Steve Scherf et al.
# Submitted via: CDex 1.51
#
DISCID=c20e640e
DTITLE=やしきたかじん - ソング&トークライブ
DYEAR=1988
DGENRE=Blues
TTITLE0=Guilty
TTITLE1=雨の日はバラードで
TTITLE2=たかじんトークその?
TTITLE3=空車
TTITLE4=未練
TTITLE5=たかじんトークその?
TTITLE6=ラブ・イズ・オーヴァー
TTITLE7=時は過ぎてゆく
TTITLE8=愛の幕切れ
TTITLE9=サンジャンの私の恋人
TTITLE10=たかじんトークその?
TTITLE11=やっぱ好きやねん
TTITLE12=あんた
TTITLE13=明日になれば
EXTD=YEAR: 1988
EXTT0=
EXTT1=
EXTT2=
EXTT3=
EXTT4=
EXTT5=
EXTT6=
EXTT7=
EXTT8=
EXTT9=
EXTT10=
EXTT11=
EXTT12=
EXTT13=
PLAYORDER=
